<svg width="143" height="28" viewBox="0 0 143 28" fill="none" xmlns="http://www.w3.org/2000/svg">
<path d="M1.12 19V7.48H4.728C4.83467 7.48 5.032 7.48267 5.32 7.488C5.61333 7.49333 5.89333 7.51467 6.16 7.552C7.06133 7.664 7.81867 7.98667 8.432 8.52C9.05067 9.05333 9.51733 9.73067 9.832 10.552C10.1467 11.368 10.304 12.264 10.304 13.24C10.304 14.2213 10.1467 15.1227 9.832 15.944C9.51733 16.76 9.05067 17.4347 8.432 17.968C7.81867 18.496 7.06133 18.816 6.16 18.928C5.89333 18.9653 5.61333 18.9867 5.32 18.992C5.032 18.9973 4.83467 19 4.728 19H1.12ZM2.832 17.408H4.728C4.90933 17.408 5.12533 17.4027 5.376 17.392C5.62667 17.3813 5.848 17.36 6.04 17.328C6.62667 17.216 7.10133 16.9627 7.464 16.568C7.832 16.168 8.10133 15.6773 8.272 15.096C8.44267 14.5147 8.528 13.896 8.528 13.24C8.528 12.5627 8.44 11.936 8.264 11.36C8.088 10.7787 7.816 10.2933 7.448 9.904C7.08533 9.50933 6.616 9.25867 6.04 9.152C5.848 9.11467 5.624 9.09333 5.368 9.088C5.11733 9.07733 4.904 9.072 4.728 9.072H2.832V17.408ZM14.6069 19.24C13.9669 19.24 13.4309 19.1227 12.9989 18.888C12.5669 18.648 12.2389 18.3333 12.0149 17.944C11.7962 17.5493 11.6869 17.1173 11.6869 16.648C11.6869 16.2107 11.7642 15.8267 11.9189 15.496C12.0735 15.1653 12.3029 14.8853 12.6069 14.656C12.9109 14.4213 13.2842 14.232 13.7269 14.088C14.1109 13.976 14.5455 13.8773 15.0309 13.792C15.5162 13.7067 16.0255 13.6267 16.5589 13.552C17.0975 13.4773 17.6309 13.4027 18.1589 13.328L17.5509 13.664C17.5615 12.9867 17.4175 12.4853 17.1189 12.16C16.8255 11.8293 16.3189 11.664 15.5989 11.664C15.1455 11.664 14.7295 11.7707 14.3509 11.984C13.9722 12.192 13.7082 12.5387 13.5589 13.024L11.9989 12.544C12.2122 11.8027 12.6175 11.2133 13.2149 10.776C13.8175 10.3387 14.6175 10.12 15.6149 10.12C16.3882 10.12 17.0602 10.2533 17.6309 10.52C18.2069 10.7813 18.6282 11.1973 18.8949 11.768C19.0335 12.0507 19.1189 12.3493 19.1509 12.664C19.1829 12.9787 19.1989 13.3173 19.1989 13.68V19H17.7189V17.024L18.0069 17.28C17.6495 17.9413 17.1935 18.4347 16.6389 18.76C16.0895 19.08 15.4122 19.24 14.6069 19.24ZM14.9029 17.872C15.3775 17.872 15.7855 17.7893 16.1269 17.624C16.4682 17.4533 16.7429 17.2373 16.9509 16.976C17.1589 16.7147 17.2949 16.4427 17.3589 16.16C17.4495 15.904 17.5002 15.616 17.5109 15.296C17.5269 14.976 17.5349 14.72 17.5349 14.528L18.0789 14.728C17.5509 14.808 17.0709 14.88 16.6389 14.944C16.2069 15.008 15.8149 15.072 15.4629 15.136C15.1162 15.1947 14.8069 15.2667 14.5349 15.352C14.3055 15.432 14.1002 15.528 13.9189 15.64C13.7429 15.752 13.6015 15.888 13.4949 16.048C13.3935 16.208 13.3429 16.4027 13.3429 16.632C13.3429 16.856 13.3989 17.064 13.5109 17.256C13.6229 17.4427 13.7935 17.592 14.0229 17.704C14.2522 17.816 14.5455 17.872 14.9029 17.872ZM21.2763 19V10.36H22.7643V12.456L22.5563 12.184C22.6629 11.9067 22.8016 11.6533 22.9723 11.424C23.1429 11.1893 23.3403 10.9973 23.5643 10.848C23.7829 10.688 24.0256 10.5653 24.2923 10.48C24.5643 10.3893 24.8416 10.336 25.1243 10.32C25.4069 10.2987 25.6789 10.312 25.9403 10.36V11.928C25.6576 11.8533 25.3429 11.832 24.9963 11.864C24.6549 11.896 24.3403 12.0053 24.0523 12.192C23.7803 12.368 23.5643 12.5813 23.4043 12.832C23.2496 13.0827 23.1376 13.3627 23.0683 13.672C22.9989 13.976 22.9643 14.2987 22.9643 14.64V19H21.2763ZM27.4558 19L27.4638 7.48H29.1598V14.52L32.5518 10.36H34.6798L31.0958 14.68L35.0478 19H32.7758L29.1598 14.84V19H27.4558ZM39.0575 19V7.48H40.5695L44.7455 16.144L48.8975 7.48H50.4255V18.992H48.8415V11.112L45.1215 19H44.3615L40.6335 11.112V19H39.0575ZM56.4189 19.24C55.5549 19.24 54.8055 19.0453 54.1709 18.656C53.5362 18.2667 53.0455 17.7307 52.6989 17.048C52.3575 16.36 52.1869 15.568 52.1869 14.672C52.1869 13.7707 52.3629 12.9787 52.7149 12.296C53.0669 11.608 53.5602 11.0747 54.1949 10.696C54.8295 10.312 55.5709 10.12 56.4189 10.12C57.2829 10.12 58.0322 10.3147 58.6669 10.704C59.3015 11.0933 59.7922 11.6293 60.1389 12.312C60.4855 12.9947 60.6589 13.7813 60.6589 14.672C60.6589 15.5733 60.4829 16.368 60.1309 17.056C59.7842 17.7387 59.2935 18.2747 58.6589 18.664C58.0242 19.048 57.2775 19.24 56.4189 19.24ZM56.4189 17.664C57.2455 17.664 57.8615 17.3867 58.2669 16.832C58.6775 16.272 58.8829 15.552 58.8829 14.672C58.8829 13.7707 58.6749 13.0507 58.2589 12.512C57.8482 11.968 57.2349 11.696 56.4189 11.696C55.8589 11.696 55.3975 11.824 55.0349 12.08C54.6722 12.3307 54.4029 12.68 54.2269 13.128C54.0509 13.5707 53.9629 14.0853 53.9629 14.672C53.9629 15.5787 54.1709 16.304 54.5869 16.848C55.0029 17.392 55.6135 17.664 56.4189 17.664ZM65.8489 19.24C65.0435 19.24 64.3475 19.04 63.7609 18.64C63.1795 18.24 62.7289 17.696 62.4089 17.008C62.0942 16.3147 61.9369 15.536 61.9369 14.672C61.9369 13.8027 62.0969 13.0267 62.4169 12.344C62.7369 11.656 63.1902 11.1147 63.7769 10.72C64.3689 10.32 65.0702 10.12 65.8809 10.12C66.6969 10.12 67.3822 10.32 67.9369 10.72C68.4969 11.1147 68.9182 11.656 69.2009 12.344C69.4889 13.032 69.6329 13.808 69.6329 14.672C69.6329 15.536 69.4889 16.312 69.2009 17C68.9129 17.688 68.4889 18.2347 67.9289 18.64C67.3689 19.04 66.6755 19.24 65.8489 19.24ZM66.0809 17.728C66.6302 17.728 67.0782 17.5973 67.4249 17.336C67.7715 17.0747 68.0249 16.7147 68.1849 16.256C68.3449 15.7973 68.4249 15.2693 68.4249 14.672C68.4249 14.0747 68.3422 13.5467 68.1769 13.088C68.0169 12.6293 67.7662 12.272 67.4249 12.016C67.0889 11.76 66.6595 11.632 66.1369 11.632C65.5822 11.632 65.1262 11.768 64.7689 12.04C64.4115 12.312 64.1449 12.6773 63.9689 13.136C63.7982 13.5947 63.7129 14.1067 63.7129 14.672C63.7129 15.2427 63.7982 15.76 63.9689 16.224C64.1449 16.6827 64.4062 17.048 64.7529 17.32C65.1049 17.592 65.5475 17.728 66.0809 17.728ZM68.4249 19V12.784H68.2329V7.48H69.9129V19H68.4249ZM75.9833 19.24C75.1246 19.24 74.3699 19.0533 73.7193 18.68C73.0739 18.3013 72.5699 17.776 72.2072 17.104C71.8499 16.4267 71.6713 15.6427 71.6713 14.752C71.6713 13.808 71.8473 12.9893 72.1993 12.296C72.5566 11.6027 73.0526 11.0667 73.6873 10.688C74.3219 10.3093 75.0606 10.12 75.9033 10.12C76.7833 10.12 77.5326 10.3253 78.1513 10.736C78.7699 11.1413 79.2313 11.72 79.5353 12.472C79.8446 13.224 79.9673 14.1173 79.9033 15.152H78.2313V14.544C78.2206 13.5413 78.0286 12.8 77.6553 12.32C77.2873 11.84 76.7246 11.6 75.9673 11.6C75.1299 11.6 74.5006 11.864 74.0793 12.392C73.6579 12.92 73.4473 13.6827 73.4473 14.68C73.4473 15.6293 73.6579 16.3653 74.0793 16.888C74.5006 17.4053 75.1086 17.664 75.9033 17.664C76.4259 17.664 76.8766 17.5467 77.2553 17.312C77.6393 17.072 77.9379 16.7307 78.1513 16.288L79.7913 16.808C79.4553 17.5813 78.9459 18.1813 78.2633 18.608C77.5806 19.0293 76.8206 19.24 75.9833 19.24ZM72.9033 15.152V13.848H79.0712V15.152H72.9033Z" fill="#565973"/>
<rect x="97" y="1" width="46" height="24" rx="12" fill="#9397AD"/>
<g filter="url(#filter0_d_4632_11294)">
<circle cx="109" cy="13" r="10" fill="white"/>
</g>
<defs>
<filter id="filter0_d_4632_11294" x="95" y="0" width="28" height="28" filterUnits="userSpaceOnUse" color-interpolation-filters="sRGB">
<feFlood flood-opacity="0" result="BackgroundImageFix"/>
<feColorMatrix in="SourceAlpha" type="matrix" values="0 0 0 0 0 0 0 0 0 0 0 0 0 0 0 0 0 0 127 0" result="hardAlpha"/>
<feOffset dy="1"/>
<feGaussianBlur stdDeviation="2"/>
<feColorMatrix type="matrix" values="0 0 0 0 0.223529 0 0 0 0 0.270588 0 0 0 0 0.352941 0 0 0 0.3 0"/>
<feBlend mode="normal" in2="BackgroundImageFix" result="effect1_dropShadow_4632_11294"/>
<feBlend mode="normal" in="SourceGraphic" in2="effect1_dropShadow_4632_11294" result="shape"/>
</filter>
</defs>
</svg>
